<?xml version="1.0" encoding="UTF-8"?>
<svg width="64" height="64" viewBox="0 0 64 64" xmlns="http://www.w3.org/2000/svg">
  <!-- 身体 -->
  <circle cx="32" cy="42" r="16" fill="#9B59B6" stroke="#6C3483" stroke-width="2"/>
  
  <!-- 法师长袍 -->
  <path d="M 20 42 L 20 58 L 44 58 L 44 42" fill="#9B59B6" stroke="#6C3483" stroke-width="1"/>
  
  <!-- 法师帽 -->
  <path d="M 12 26 L 32 8 L 52 26 L 40 26 L 40 30 L 24 30 L 24 26 Z" fill="#9B59B6" stroke="#6C3483" stroke-width="2"/>
  
  <!-- 帽子星星装饰 -->
  <polygon points="32,12 34,16 38,16 35,19 36,23 32,20 28,23 29,19 26,16 30,16" fill="#FFD700"/>
  
  <!-- 眼睛 -->
  <ellipse cx="26" cy="36" rx="3" ry="4" fill="#FFFFFF"/>
  <ellipse cx="38" cy="36" rx="3" ry="4" fill="#FFFFFF"/>
  
  <!-- 眼珠 -->
  <circle cx="27" cy="36" r="1.5" fill="#2C3E50"/>
  <circle cx="39" cy="36" r="1.5" fill="#2C3E50"/>
  
  <!-- 魔法杖 -->
  <rect x="48" y="24" width="2" height="28" fill="#8B4513"/>
  <circle cx="49" cy="22" r="4" fill="#3498DB" stroke="#2980B9" stroke-width="1"/>
  
  <!-- 手 -->
  <ellipse cx="48" cy="42" rx="3" ry="2" fill="#9B59B6"/>
  
  <!-- 脚 -->
  <ellipse cx="28" cy="58" rx="4" ry="2" fill="#34495E"/>
  <ellipse cx="36" cy="58" rx="4" ry="2" fill="#34495E"/>
</svg>